<svg xmlns="http://www.w3.org/2000/svg" xmlns:xlink="http://www.w3.org/1999/xlink" width="967.545" height="658.005" viewBox="0 0 967.545 658.005">
  <defs>
    <linearGradient id="linear-gradient" y1="0.5" x2="1" y2="0.5" gradientUnits="objectBoundingBox">
      <stop offset="0" stop-color="#fff"/>
      <stop offset="0.531"/>
    </linearGradient>
    <linearGradient id="linear-gradient-2" y1="0.5" x2="1" y2="0.5" gradientUnits="objectBoundingBox">
      <stop offset="0" stop-color="#fff"/>
      <stop offset="1"/>
    </linearGradient>
  </defs>
  <g id="Group_301" data-name="Group 301" transform="translate(-40.911 -19.355)">
    <g id="Group_280" data-name="Group 280" transform="translate(94.12 187.052)">
      <path id="Path_9" data-name="Path 9" d="M82.586,573.5s-2.919-61.588-5.236-91.608c-.89-11.52,0-12.365,12.833-12.365h65.7s-5.13-119.642-7.841-155.146c-.566-7.425-1.986-21.246,20.977-21.147,28.7.124,106.433.475,106.433.475s-3.235-56.724-3.383-73.557c-.044-4.962-2.122-14.028,14.084-13.985,22.463.06,89.856.26,89.856.26H565.338s-.694-39.792,0-56.492c.272-6.553-.694-15.656,20.649-16.178,43.9-1.073,108.02.791,141.7,0,10.454-.246,17.233,6.1,17.038,15.656-.519,25.395,0,101.6,0,101.6s18.855,1.457,25.139,1.953c10.816.853,11.032,10.257,10.98,14.879-.165,15.068,0,46.48,0,46.48h39.617s1.788-82.983,0-120.261c-.675-14.094,7.429-13.187,14.459-14.094,16.045-2.07,24.055-1.582,36.531-.287,8.612.892,8.335,8.914,8.437,12.524,2.066,73.062,0,258.654,0,258.654s16.988.976,22.093.976c7.568,0,8.612,4.243,8.612,15.394V575.766Z" transform="translate(-77.1 -133.412)" fill="#ffe4d2"/>
      <path id="Path_10" data-name="Path 10" d="M152.184,254.208l-13.681.216a2.558,2.558,0,0,0-2.511,2.591l.776,13.683a2.559,2.559,0,0,0,2.592,2.511l12.815.09a2.559,2.559,0,0,0,2.511-2.592l.09-13.987A2.559,2.559,0,0,0,152.184,254.208Z" transform="translate(-49.404 -76.602)" fill="#fff"/>
      <path id="Path_11" data-name="Path 11" d="M167.284,274.175l-11.6.184a2.17,2.17,0,0,0-2.129,2.2l.659,11.6a2.169,2.169,0,0,0,2.2,2.129l10.864.075a2.169,2.169,0,0,0,2.129-2.2l.075-11.857A2.17,2.17,0,0,0,167.284,274.175Z" transform="translate(-41.143 -67.212)" fill="#fff"/>
      <path id="Path_12" data-name="Path 12" d="M153.175,293.076l-11.6.182a2.172,2.172,0,0,0-2.129,2.2l.659,11.6a2.168,2.168,0,0,0,2.2,2.128l10.864.076a2.171,2.171,0,0,0,2.129-2.2l.075-11.856A2.169,2.169,0,0,0,153.175,293.076Z" transform="translate(-47.778 -58.323)" fill="#fff"/>
      <path id="Path_13" data-name="Path 13" d="M167.284,293.076l-11.6.182a2.171,2.171,0,0,0-2.129,2.2l.659,11.6a2.168,2.168,0,0,0,2.2,2.128l10.864.076a2.17,2.17,0,0,0,2.129-2.2l.075-11.856A2.169,2.169,0,0,0,167.284,293.076Z" transform="translate(-41.143 -58.323)" fill="#db724e" opacity="0.2"/>
      <path id="Path_14" data-name="Path 14" d="M618.666,267.505l-13.683.216a2.557,2.557,0,0,0-2.51,2.592l.776,13.681a2.559,2.559,0,0,0,2.592,2.511l12.815.09A2.559,2.559,0,0,0,621.168,284l.09-13.988A2.56,2.56,0,0,0,618.666,267.505Z" transform="translate(169.98 -70.349)" fill="#fff"/>
      <path id="Path_15" data-name="Path 15" d="M527.255,143.012l-13.683.216a2.56,2.56,0,0,0-2.511,2.592l.776,13.683a2.561,2.561,0,0,0,2.592,2.511l12.816.088a2.557,2.557,0,0,0,2.51-2.591l.09-13.988A2.559,2.559,0,0,0,527.255,143.012Z" transform="translate(126.989 -128.897)" fill="#db724e" opacity="0.3"/>
      <path id="Path_16" data-name="Path 16" d="M508.583,143.012l-13.681.216a2.559,2.559,0,0,0-2.511,2.592l.776,13.683a2.56,2.56,0,0,0,2.592,2.511l12.815.088a2.558,2.558,0,0,0,2.511-2.591l.09-13.988A2.56,2.56,0,0,0,508.583,143.012Z" transform="translate(118.209 -128.897)" fill="#fff"/>
      <path id="Path_17" data-name="Path 17" d="M617.173,318.547l-11.6.182a2.168,2.168,0,0,0-2.128,2.2l.659,11.6a2.168,2.168,0,0,0,2.2,2.129l10.862.076a2.169,2.169,0,0,0,2.129-2.2l.077-11.858A2.168,2.168,0,0,0,617.173,318.547Z" transform="translate(170.438 -46.344)" fill="#db724e" opacity="0.2"/>
      <path id="Path_18" data-name="Path 18" d="M600.051,318.547l-11.6.182a2.17,2.17,0,0,0-2.129,2.2l.659,11.6a2.17,2.17,0,0,0,2.2,2.129l10.864.076a2.17,2.17,0,0,0,2.129-2.2l.075-11.858A2.167,2.167,0,0,0,600.051,318.547Z" transform="translate(162.385 -46.344)" fill="#fff"/>
      <path id="Path_19" data-name="Path 19" d="M586.025,266.924l-11.6.182a2.17,2.17,0,0,0-2.128,2.2l.657,11.6a2.169,2.169,0,0,0,2.2,2.128l10.863.076a2.169,2.169,0,0,0,2.129-2.2l.077-11.856A2.171,2.171,0,0,0,586.025,266.924Z" transform="translate(155.79 -70.622)" fill="#db724e" opacity="0.3"/>
      <path id="Path_20" data-name="Path 20" d="M617.173,337.447l-11.6.184a2.167,2.167,0,0,0-2.128,2.2l.659,11.6a2.169,2.169,0,0,0,2.2,2.129l10.862.075a2.169,2.169,0,0,0,2.129-2.2l.077-11.857A2.17,2.17,0,0,0,617.173,337.447Z" transform="translate(170.438 -37.456)" fill="#fff"/>
      <path id="Path_21" data-name="Path 21" d="M637.937,359.919l-11.6.182a2.168,2.168,0,0,0-2.128,2.2l.659,11.6a2.168,2.168,0,0,0,2.2,2.129l10.863.076a2.169,2.169,0,0,0,2.129-2.2l.076-11.858A2.168,2.168,0,0,0,637.937,359.919Z" transform="translate(180.203 -26.887)" fill="#fff"/>
      <path id="Path_22" data-name="Path 22" d="M620.379,175.718l-11.6.182a2.17,2.17,0,0,0-2.129,2.2l.659,11.6a2.168,2.168,0,0,0,2.2,2.127l10.864.076a2.17,2.17,0,0,0,2.129-2.2l.075-11.856A2.168,2.168,0,0,0,620.379,175.718Z" transform="translate(171.945 -113.516)" fill="#fff"/>
      <path id="Path_23" data-name="Path 23" d="M100.79,373.569l-11.6.184a2.169,2.169,0,0,0-2.129,2.2l.659,11.6a2.169,2.169,0,0,0,2.2,2.129l10.864.075a2.167,2.167,0,0,0,2.128-2.2l.076-11.856A2.17,2.17,0,0,0,100.79,373.569Z" transform="translate(-72.415 -20.468)" fill="#db724e" opacity="0.3"/>
      <path id="Path_24" data-name="Path 24" d="M117.029,373.569l-11.6.184a2.168,2.168,0,0,0-2.128,2.2l.659,11.6a2.169,2.169,0,0,0,2.2,2.129l10.863.075a2.169,2.169,0,0,0,2.129-2.2l.076-11.856A2.171,2.171,0,0,0,117.029,373.569Z" transform="translate(-64.778 -20.468)" fill="#fff"/>
      <path id="Path_25" data-name="Path 25" d="M167.284,274.175l-11.6.184a2.17,2.17,0,0,0-2.129,2.2l.659,11.6a2.169,2.169,0,0,0,2.2,2.129l10.864.075a2.169,2.169,0,0,0,2.129-2.2l.075-11.857A2.17,2.17,0,0,0,167.284,274.175Z" transform="translate(-41.143 -67.212)" fill="#ffd4d2" opacity="0.2"/>
      <path id="Path_26" data-name="Path 26" d="M153.175,293.076l-11.6.182a2.172,2.172,0,0,0-2.129,2.2l.659,11.6a2.168,2.168,0,0,0,2.2,2.128l10.864.076a2.171,2.171,0,0,0,2.129-2.2l.075-11.856A2.169,2.169,0,0,0,153.175,293.076Z" transform="translate(-47.778 -58.323)" fill="#ffd4d2" opacity="0.2"/>
      <path id="Path_27" data-name="Path 27" d="M508.583,143.012l-13.681.216a2.559,2.559,0,0,0-2.511,2.592l.776,13.683a2.56,2.56,0,0,0,2.592,2.511l12.815.088a2.558,2.558,0,0,0,2.511-2.591l.09-13.988A2.56,2.56,0,0,0,508.583,143.012Z" transform="translate(118.209 -128.897)" fill="#ffd4d2" opacity="0.2"/>
      <path id="Path_28" data-name="Path 28" d="M600.051,318.547l-11.6.182a2.17,2.17,0,0,0-2.129,2.2l.659,11.6a2.17,2.17,0,0,0,2.2,2.129l10.864.076a2.17,2.17,0,0,0,2.129-2.2l.075-11.858A2.167,2.167,0,0,0,600.051,318.547Z" transform="translate(162.385 -46.344)" fill="#ffd4d2" opacity="0.2"/>
      <path id="Path_29" data-name="Path 29" d="M617.173,337.447l-11.6.184a2.167,2.167,0,0,0-2.128,2.2l.659,11.6a2.169,2.169,0,0,0,2.2,2.129l10.862.075a2.169,2.169,0,0,0,2.129-2.2l.077-11.857A2.17,2.17,0,0,0,617.173,337.447Z" transform="translate(170.438 -37.456)" fill="#ffd4d2" opacity="0.2"/>
      <path id="Path_30" data-name="Path 30" d="M637.937,359.919l-11.6.182a2.168,2.168,0,0,0-2.128,2.2l.659,11.6a2.168,2.168,0,0,0,2.2,2.129l10.863.076a2.169,2.169,0,0,0,2.129-2.2l.076-11.858A2.168,2.168,0,0,0,637.937,359.919Z" transform="translate(180.203 -26.887)" fill="#ffd4d2" opacity="0.2"/>
      <path id="Path_31" data-name="Path 31" d="M117.029,373.569l-11.6.184a2.168,2.168,0,0,0-2.128,2.2l.659,11.6a2.169,2.169,0,0,0,2.2,2.129l10.863.075a2.169,2.169,0,0,0,2.129-2.2l.076-11.856A2.171,2.171,0,0,0,117.029,373.569Z" transform="translate(-64.778 -20.468)" fill="#ffd4d2" opacity="0.2"/>
    </g>
    <g id="Group_281" data-name="Group 281" transform="translate(107.202 89.9)">
      <path id="Path_32" data-name="Path 32" d="M241.736,201.883H346.855c29.932,0,51.876-23.525,35.466-37.6s-74.754-.662-100.273,11.02c41.02-45.463,4.434-86.17-26.981-52.509,2.245-71.234-130.831-85.326-71.337,26.615-52.448-31.311-96.285,15-43.055,25.893-59.913,7.525-68.894,26.521-35.227,26.521C112.472,201.829,234.088,201.883,241.736,201.883Z" transform="translate(-85.998 -67.335)" fill="#ffd4d2"/>
      <path id="Path_33" data-name="Path 33" d="M233.016,188.2c46.969,0,95.5-.869,110.635-8.7s-51.143-17.743-84.542,0c24.005-52.187,2.61-73.062-20.614-51.143.26-49.056-86.37-57.215-54.014,16.012-40.183-12.88-49.055,19.117-1.566,21.384-68.364,5.919-104.6,22.444-32.21,22.444" transform="translate(-74.225 -56.458)" fill="#fff" opacity="0.5"/>
    </g>
    <g id="Group_282" data-name="Group 282" transform="translate(529.306 19.355)">
      <path id="Path_34" data-name="Path 34" d="M458.757,142.86H703.681c39.739,0,39.739-12.8,26.937-23.9s-64.452,4.268-64.452,4.268,41.948-31.447,30.582-51.143S652.516,72,652.516,72s11.993-34.117-10.857-47.773S592.37,39.586,592.37,39.586,568.635,13.5,545.5,20.57,521.207,55.8,531.934,80.613C513.6,50.565,448.176,32.758,465.64,92.5,391.78,86.528,304.115,142.86,458.757,142.86Z" transform="translate(-373.086 -19.355)" fill="#ffd4d2"/>
      <path id="Path_35" data-name="Path 35" d="M537.036,23.177c-14.747,10.757-14.322,34.546-5.1,55.87C513.6,49,448.176,31.191,465.64,90.937c-73.86-5.975-161.525,50.356-6.882,50.356H703.681c14.231,0,23.344-1.647,28.619-4.264,3.226-12.456-10.235-30.037-75.775-6.831,27.739-36.7,41.556-67.382,16.084-67.617a74.006,74.006,0,0,0-20.093,7.848l-16.9,13.68S655.1,26.339,613.3,22.687c-11.977,5.527-20.925,15.332-20.925,15.332L574.162,53.809S568.2,22.434,537.036,23.177Z" transform="translate(-373.086 -17.788)" fill="#fff" opacity="0.5"/>
      <path id="Path_36" data-name="Path 36" d="M552.4,33.8c-12.786-9.758-30.406,8-20.164,18.562S564.559,43.084,552.4,33.8Z" transform="translate(-299.683 -13.891)" fill="#fff" opacity="0.3"/>
      <path id="Path_37" data-name="Path 37" d="M453.716,126.015h172.15c15.6-14.075,34.4-39.283,33.3-54.624-1.514-21.078-48.243,32.327-48.243,32.327s2.155-46.382-30.172-48.476-38.407,42.714-38.407,42.714-27.778-30.725-46.7-22.723,1.566,33.286,1.566,33.286-32.965-14.281-65.932-14.5c-18.355-.124-46.125,12.821-47.474,24.982C397.061,123.245,419.428,126.015,453.716,126.015Z" transform="translate(-368.044 -2.511)" fill="#fff" opacity="0.3"/>
    </g>
    <path id="Path_38" data-name="Path 38" d="M40.911,440.559h967.545s-197.424-14.426-351.292-14.426H406.817S121.413,424.311,40.911,440.559Z" transform="translate(0 191.277)" fill="#fead6f"/>
    <g id="Group_286" data-name="Group 286" transform="translate(769.884 467.346)">
      <g id="Group_283" data-name="Group 283" transform="translate(0 60.763)">
        <path id="Path_39" data-name="Path 39" d="M633.267,464.409H617.943s-6.959-25.21-59.81-47.164,5.669-24.945,30.525-5.811c-23.207-27.5-22.454-42.783-7.523-45.917S646.585,412.428,633.267,464.409Z" transform="translate(-536.711 -365.377)" fill="#b0aed4"/>
        <path id="Path_40" data-name="Path 40" d="M610.008,426.744s-6.18-37.662-30.246-61.014c-13.541,3.8-13.558,18.933,8.894,45.538l11.339,9.991s-36.371-15.013-60.914-21.306c-5.48,2.464-2.341,8.239,19.051,17.126,52.851,21.954,59.81,47.164,59.81,47.164h15.323c8.453-32.992-8.81-65.183-26.368-83.513Z" transform="translate(-536.709 -365.211)" fill="#b0aed4" opacity="0.5" style="mix-blend-mode: multiply;isolation: isolate"/>
      </g>
      <g id="Group_284" data-name="Group 284" transform="translate(71.884)">
        <path id="Path_41" data-name="Path 41" d="M614.736,483.845s27.219-81.579,5.6-137.767-39.794,8.415-33.46,46.148,13.794,91.618,13.794,91.618Z" transform="translate(-585.602 -324.05)" fill="#b0aed4"/>
        <path id="Path_42" data-name="Path 42" d="M610.362,483.638c9.354-55.74-8.078-150.507-9.71-159.148-11.321,5.287-17.995,42.374-13.772,67.529,6.334,37.732,13.793,91.618,13.793,91.618Z" transform="translate(-585.602 -323.842)" fill="#b0aed4" opacity="0.3" style="mix-blend-mode: multiply;isolation: isolate"/>
      </g>
      <g id="Group_285" data-name="Group 285" transform="translate(96.555 53.841)">
        <path id="Path_43" data-name="Path 43" d="M617.432,466.623s50.359-64.509,51.966-94.19-63.489-4.948-67.016,94.19Z" transform="translate(-602.382 -360.669)" fill="#b0aed4"/>
        <path id="Path_44" data-name="Path 44" d="M663.079,361.215c-16.178-5.193-57.891,26.592-60.7,105.407H611C616.469,431.358,648.146,371.654,663.079,361.215Z" transform="translate(-602.382 -360.667)" fill="#fff" opacity="0.35"/>
      </g>
      <path id="Path_45" data-name="Path 45" d="M612.618,446.867h7.993s60.872-26,68.314-38.282S635.859,400.5,612.618,446.867Z" transform="translate(-501.013 -287.072)" fill="#b0aed4"/>
      <path id="Path_46" data-name="Path 46" d="M685.917,403.374c-12.584-3.623-54.768,6.522-73.3,43.488h3.561S649.611,414.609,685.917,403.374Z" transform="translate(-501.013 -287.067)" fill="#b0aed4" opacity="0.5" style="mix-blend-mode: multiply;isolation: isolate"/>
    </g>
    <g id="Group_294" data-name="Group 294" transform="translate(157.57 71.018)">
      <path id="Path_47" data-name="Path 47" d="M468.755,440.651q-13.555-.018-27.39-.019c-177.344,0-321.11,2.16-321.11,4.824s143.765,4.823,321.11,4.823c58.24,0,135.808,0,151.986-4.043C563.043,443.586,508.313,443.049,468.755,440.651Z" transform="translate(-120.255 127.106)" opacity="0.25" fill="url(#linear-gradient)" style="mix-blend-mode: multiply;isolation: isolate"/>
      <g id="Group_293" data-name="Group 293" transform="translate(204.121)">
        <path id="Rectangle_56" data-name="Rectangle 56" d="M30.251,0h250.39a30.251,30.251,0,0,1,30.251,30.251V543.09a30.252,30.252,0,0,1-30.252,30.252H30.251A30.251,30.251,0,0,1,0,543.091V30.251A30.251,30.251,0,0,1,30.251,0Z" fill="#b0aed4"/>
        <path id="Rectangle_57" data-name="Rectangle 57" d="M24.592,0H269.659a24.592,24.592,0,0,1,24.592,24.592V532.107A24.591,24.591,0,0,1,269.66,556.7H24.592A24.592,24.592,0,0,1,0,532.106V24.592A24.592,24.592,0,0,1,24.592,0Z" transform="translate(8.321 8.321)" fill="#dfdffb"/>
        <path id="Path_48" data-name="Path 48" d="M400.44,408.973H350.817c-5.872,0-10.677,5.05-10.677,11.224s4.8,11.224,10.677,11.224H400.44c5.872,0,10.677-5.05,10.677-11.224S406.312,408.973,400.44,408.973Z" transform="translate(-220.966 112.217)" fill="#6770a7"/>
        <path id="Path_49" data-name="Path 49" d="M400.174,408.973H351.647a10.441,10.441,0,1,0,0,20.883h48.527a10.441,10.441,0,1,0,0-20.883Z" transform="translate(-220.465 112.217)" fill="#b0aed4"/>
        <g id="Group_287" data-name="Group 287" transform="translate(85.31 161.078)">
          <rect id="Rectangle_58" data-name="Rectangle 58" width="5.611" height="5.611" transform="translate(61.72 0)" fill="#222221"/>
          <path id="Path_50" data-name="Path 50" d="M385.8,164.048v39.276h39.276V164.048Zm33.665,11.221v22.444H391.41V169.659h28.055Z" transform="translate(-284.802 -164.048)" fill="#222221"/>
          <path id="Path_51" data-name="Path 51" d="M324.74,177.291v11.222h16.833V171.68H324.74Z" transform="translate(-313.518 -160.459)" fill="#222221"/>
          <rect id="Rectangle_59" data-name="Rectangle 59" width="11.222" height="5.611" transform="translate(44.887 22.444)" fill="#222221"/>
          <path id="Path_52" data-name="Path 52" d="M364.47,192.1v5.611h5.611V192.1h5.611v5.611H381.3V192.1h5.611v-5.611H381.3v-5.611h16.833V175.27H386.913V164.048H381.3v5.611H370.081v11.222h5.611v5.611h-5.611v-5.611H364.47V175.27H353.248V164.048h-5.611v16.833h11.222v5.611h5.611Z" transform="translate(-302.75 -164.048)" fill="#222221"/>
          <rect id="Rectangle_60" data-name="Rectangle 60" width="5.611" height="5.611" transform="translate(89.775 22.444)" fill="#222221"/>
          <path id="Path_53" data-name="Path 53" d="M410.264,182.9V171.68H393.431v16.833h16.833Z" transform="translate(-281.213 -160.459)" fill="#222221"/>
          <path id="Path_54" data-name="Path 54" d="M356.384,197.713V164.048H317.108v39.276h39.276Zm-33.665,0V169.659h28.055v28.055Z" transform="translate(-317.107 -164.048)" fill="#222221"/>
          <rect id="Rectangle_61" data-name="Rectangle 61" width="5.611" height="5.611" transform="translate(44.887 33.665)" fill="#222221"/>
          <rect id="Rectangle_62" data-name="Rectangle 62" width="5.611" height="5.611" transform="translate(56.109 33.665)" fill="#222221"/>
          <rect id="Rectangle_63" data-name="Rectangle 63" width="5.611" height="5.611" transform="translate(67.331 33.665)" fill="#222221"/>
          <rect id="Rectangle_64" data-name="Rectangle 64" width="5.611" height="5.611" transform="translate(78.553 33.665)" fill="#222221"/>
          <rect id="Rectangle_65" data-name="Rectangle 65" width="5.611" height="5.611" transform="translate(72.942 39.277)" fill="#222221"/>
          <path id="Path_55" data-name="Path 55" d="M408.243,200.188h-5.611v-5.611h-5.611v5.611H391.41V205.8H385.8v5.611h5.611v5.611h5.611V205.8h5.611v11.222h16.833v5.611h5.611V205.8h-5.611v5.611H408.243V205.8h11.222v-5.611h5.611v-5.611H408.243Z" transform="translate(-284.802 -149.69)" fill="#222221"/>
          <path id="Path_56" data-name="Path 56" d="M351,211.41V205.8h-5.611v-5.611H351V205.8h5.611v-5.611h5.611V205.8h-5.611v5.611h11.222v5.611h5.611V205.8h-5.611V194.577H328.556v5.611h11.222V205.8H328.556v5.611h5.611v5.611h5.611V211.41Z" transform="translate(-311.723 -149.69)" fill="#222221"/>
          <path id="Path_57" data-name="Path 57" d="M322.718,211.41h5.611V200.188h-5.611v-5.611h-5.611v50.5h5.611V233.854h5.611v-5.611h-5.611v-5.611h5.611v-5.611h-5.611Z" transform="translate(-317.108 -149.69)" fill="#222221"/>
          <rect id="Rectangle_66" data-name="Rectangle 66" width="5.611" height="5.611" transform="translate(11.222 61.72)" fill="#222221"/>
          <rect id="Rectangle_67" data-name="Rectangle 67" width="5.611" height="5.611" transform="translate(39.276 61.72)" fill="#222221"/>
          <path id="Path_58" data-name="Path 58" d="M370.307,226.222V215h5.611v-5.611h5.611V215h11.222v-5.611H387.14v-5.611h5.611v5.611h5.611V198.167h-5.611V186.945H387.14v11.222h-5.611v5.611H370.307v5.611H364.7v11.222h-5.611v5.611Z" transform="translate(-297.366 -153.28)" fill="#222221"/>
          <rect id="Rectangle_68" data-name="Rectangle 68" width="5.611" height="5.611" transform="translate(100.996 67.331)" fill="#222221"/>
          <rect id="Rectangle_69" data-name="Rectangle 69" width="5.611" height="5.611" transform="translate(50.498 72.942)" fill="#222221"/>
          <path id="Path_59" data-name="Path 59" d="M410.264,219.269H399.042v-5.611h-5.611V224.88h5.611v5.611h5.611v11.222h11.222V230.491h-5.611V224.88h5.611v5.611h5.611V219.269h-5.611v-5.611h-5.611Z" transform="translate(-281.213 -140.716)" fill="#222221"/>
          <path id="Path_60" data-name="Path 60" d="M334.167,217.475h-5.611V228.7h5.611V217.475Z" transform="translate(-311.723 -138.922)" fill="#222221"/>
          <path id="Path_61" data-name="Path 61" d="M354.816,226.675h5.611v-5.611h-5.611v-5.611H349.2v5.611h-5.611v-5.611H349.2v-5.611H337.983v5.611h-5.611v5.611h5.611v11.222h5.611v-5.611H349.2v5.611h-5.611V237.9h11.222V226.675Z" transform="translate(-309.929 -142.511)" fill="#222221"/>
          <path id="Path_62" data-name="Path 62" d="M409.584,226.675h-5.611v5.611h-5.611v-5.611h5.611v-5.611h-5.611v-5.611h-5.611v-5.612H381.529v5.612H370.308v5.611H359.085v11.221H364.7v-5.611h16.832V237.9h-5.611v11.223h5.611v-5.612h5.612v5.612h-5.612v11.221h16.833v5.611h5.611v-5.611h11.221V232.286h-5.611Zm0,16.832V254.73H392.752V237.9h16.832Z" transform="translate(-297.366 -142.511)" fill="#222221"/>
          <rect id="Rectangle_70" data-name="Rectangle 70" width="5.611" height="5.611" transform="translate(22.444 89.775)" fill="#222221"/>
          <rect id="Rectangle_71" data-name="Rectangle 71" width="5.611" height="5.611" transform="translate(72.942 89.775)" fill="#222221"/>
          <path id="Path_63" data-name="Path 63" d="M375.692,238.123v-5.611H364.469V226.9h-5.611v-5.611h-5.611v11.221h5.611v5.611h-5.611v-5.611h-5.611v28.055h11.221v-5.611h5.611V243.735h5.612v-5.612Zm-16.833,11.223h-5.611v-5.611h5.611Z" transform="translate(-302.75 -137.127)" fill="#222221"/>
          <path id="Path_64" data-name="Path 64" d="M317.108,238.351v33.665h39.276V232.739H317.108Zm33.665,0V266.4H322.719V238.351Z" transform="translate(-317.107 -131.743)" fill="#222221"/>
          <rect id="Rectangle_72" data-name="Rectangle 72" width="5.611" height="5.611" transform="translate(100.996 100.996)" fill="#222221"/>
          <rect id="Rectangle_73" data-name="Rectangle 73" width="5.611" height="5.611" transform="translate(134.662 100.996)" fill="#222221"/>
          <path id="Path_65" data-name="Path 65" d="M374.124,242.166v-5.611H362.9v11.222h5.611v-5.611Z" transform="translate(-295.571 -129.948)" fill="#222221"/>
          <path id="Path_66" data-name="Path 66" d="M412.059,242.166v11.222H395.226V259h-5.611v5.611h11.222V259h5.611v5.611H417.67v5.611h5.611V242.166H417.67v-5.611h-5.611Z" transform="translate(-283.008 -129.948)" fill="#222221"/>
          <path id="Path_67" data-name="Path 67" d="M368.513,249.8H362.9v5.611h11.222V249.8h5.611v-5.611H368.513Z" transform="translate(-295.571 -126.359)" fill="#222221"/>
          <path id="Path_68" data-name="Path 68" d="M341.573,251.593V240.372H324.74V257.2h16.833Z" transform="translate(-313.518 -128.153)" fill="#222221"/>
          <rect id="Rectangle_74" data-name="Rectangle 74" width="5.611" height="5.611" transform="translate(95.385 123.44)" fill="#222221"/>
          <rect id="Rectangle_75" data-name="Rectangle 75" width="5.611" height="5.611" transform="translate(44.887 134.662)" fill="#222221"/>
          <path id="Path_69" data-name="Path 69" d="M362.9,257.431v5.611h16.833V251.82h-5.611v5.611Z" transform="translate(-295.571 -122.769)" fill="#222221"/>
          <rect id="Rectangle_76" data-name="Rectangle 76" width="11.222" height="5.611" transform="translate(89.775 134.662)" fill="#222221"/>
          <rect id="Rectangle_77" data-name="Rectangle 77" width="5.611" height="5.611" transform="translate(117.829 134.662)" fill="#222221"/>
        </g>
        <g id="Group_292" data-name="Group 292" transform="translate(63.926 139.695)">
          <g id="Group_288" data-name="Group 288">
            <path id="Path_70" data-name="Path 70" d="M306.308,189.619h-3.744V149.5H340.78v3.744H306.308Z" transform="translate(-302.564 -149.504)" fill="#6770a7"/>
          </g>
          <g id="Group_289" data-name="Group 289" transform="translate(144.824)">
            <path id="Path_71" data-name="Path 71" d="M439.28,189.619h-3.744V153.248H401.063V149.5H439.28Z" transform="translate(-401.063 -149.504)" fill="#6770a7"/>
          </g>
          <g id="Group_290" data-name="Group 290" transform="translate(0 146.723)">
            <path id="Path_72" data-name="Path 72" d="M340.78,285.614H302.564V249.3h3.744v32.572H340.78Z" transform="translate(-302.564 -249.296)" fill="#6770a7"/>
          </g>
          <g id="Group_291" data-name="Group 291" transform="translate(144.824 146.723)">
            <path id="Path_73" data-name="Path 73" d="M439.28,285.614H401.063v-3.746h34.472V249.3h3.744Z" transform="translate(-401.063 -249.296)" fill="#6770a7"/>
          </g>
        </g>
        <rect id="Rectangle_78" data-name="Rectangle 78" width="183.04" height="45.355" transform="translate(63.926 424.013)" fill="#6770a7"/>
        <text id="SCAN" transform="translate(150.535 452.516)" fill="#fff" font-size="24" font-family="OpenSans-Bold, Open Sans" font-weight="700" letter-spacing="0.05em"><tspan x="-34" y="0">SCAN</tspan></text>
        <path id="Path_74" data-name="Path 74" d="M558.568,580.694V96.309A36.2,36.2,0,0,0,522.41,60.152H300.474a36.216,36.216,0,0,0-34.82,26.439c35.544-6.8,119.2,7.168,171.038,27.865,66.663,26.615,74.881,34.081,100.061,177.007,17.782,100.93,21.356,294.96-4.17,323.921A36.215,36.215,0,0,0,558.568,580.694Z" transform="translate(-255.996 -51.831)" fill="#fff" opacity="0.3"/>
        <path id="Path_75" data-name="Path 75" d="M519.93,60.152H297.994a36.077,36.077,0,0,0-27.067,12.221,36,36,0,0,1,23.936-9.089H516.8a36.2,36.2,0,0,1,36.157,36.157V583.826a35.994,35.994,0,0,1-9.089,23.935,36.07,36.07,0,0,0,12.221-27.067V96.309A36.2,36.2,0,0,0,519.93,60.152Z" transform="translate(-253.516 -51.831)" fill="#fff"/>
        <path id="Path_76" data-name="Path 76" d="M302.467,604.539a36.2,36.2,0,0,1-36.158-36.154V319.143L264.845,83c-.059.848-.1,1.7-.1,2.564V569.948A36.2,36.2,0,0,0,300.9,606.1H522.838a36.258,36.258,0,0,0,5.643-.441Z" transform="translate(-256.424 -41.086)" fill="#172f5b"/>
        <path id="Path_77" data-name="Path 77" d="M525.317,60.228,265.2,167.465l.6,78.234L558.782,134.293V96.274A36.2,36.2,0,0,0,525.317,60.228Z" transform="translate(-256.21 -51.796)" fill="#fff" opacity="0.6"/>
        <path id="Path_78" data-name="Path 78" d="M265.243,155.209c44.2-21.006,144.589-71.68,190.747-95.057H353.275L264.9,107.732l.056,10.511Z" transform="translate(-256.349 -51.831)" fill="#fff" opacity="0.6"/>
      </g>
    </g>
    <g id="Group_295" data-name="Group 295" transform="translate(624.165 260.064)">
      <path id="Path_79" data-name="Path 79" d="M518.245,245.968l1.3-10.96s-8.61-6.262-9.654-9.394,1.826-11.424,1.826-11.424a8.807,8.807,0,0,1-2.056-3.427c-.293-1.586,4.942-7.85,4.942-7.85s6.769-9.292,7.291-9.6a144.357,144.357,0,0,0-2.088,20.633s1.775-5.794,5.322-6.975S523.2,219.4,521.9,220.683a77.814,77.814,0,0,0,10.436,11.977s2.376-2.375,4.436-4.436c.262,4.958,2.088,17.743,2.088,17.743Z" transform="translate(-403.718 -178.255)" fill="#ff9489"/>
      <path id="Path_80" data-name="Path 80" d="M529.872,218.916c.8,2.879,3.208,14.062-6.953,14.971-2.929.262-3.1.581-1.713.913H533.82s-1.826-12.786-2.088-17.743C531.115,217.674,530.475,218.315,529.872,218.916Z" transform="translate(-398.68 -167.087)" fill="#ffd4d2"/>
      <path id="Path_81" data-name="Path 81" d="M511.06,235.7l3.654-8.9s8.61.3,15.134.687,9.916-.687,9.916-.687l3.77,8.9S525.673,239.611,511.06,235.7Z" transform="translate(-403.057 -162.504)" fill="#dfdffb"/>
      <path id="Path_82" data-name="Path 82" d="M514.714,226.8l-3.654,8.9c1.238.331,2.5.6,3.77.829L516,235.5c.472-.587,1.059-7.046,1.059-7.046l12.786-.969C523.324,227.1,514.714,226.8,514.714,226.8Z" transform="translate(-403.057 -162.504)" fill="#6770a7" opacity="0.3" style="mix-blend-mode: multiply;isolation: isolate"/>
      <path id="Path_83" data-name="Path 83" d="M551.25,441.142q-2.726-.018-5.509-.019c-35.668,0-64.581,2.145-64.581,4.79s28.913,4.79,64.581,4.79c11.714,0,20.73.335,30.2-.069C569.846,448,559.205,443.524,551.25,441.142Z" transform="translate(-417.119 -61.709)" opacity="0.25" fill="url(#linear-gradient-2)" style="mix-blend-mode: multiply;isolation: isolate"/>
      <path id="Path_84" data-name="Path 84" d="M507.694,447.019q-2.726-.033-5.509-.037c-35.666,0-64.581,4.289-64.581,9.58s28.915,9.581,64.581,9.581c11.714,0,22.688-.466,32.16-1.275C528.248,459.6,515.649,451.783,507.694,447.019Z" transform="translate(-437.603 -58.954)" opacity="0.25" fill="url(#linear-gradient-2)" style="mix-blend-mode: multiply;isolation: isolate"/>
      <path id="Path_85" data-name="Path 85" d="M535.091,440.777a60.884,60.884,0,0,1-11.873,0c-6.262-.653-2.088,4.305,5.218,6.133s8.467.969,12.193,1.267,17.752,4.736,18.824,1.6-6.58-9.061-6.58-9.061Z" transform="translate(-398.775 -61.9)"/>
      <path id="Path_86" data-name="Path 86" d="M496.891,445.839s-4.709.619-12.8,1.07c-6.937.387-6.653,6.333,25.7,17.943,5.064,1.817,9.331.037,10.547-3.984S496.891,445.839,496.891,445.839Z" transform="translate(-417.446 -59.491)"/>
      <path id="Path_87" data-name="Path 87" d="M558.024,331.72s-.522,5.48,0,8.09c3.392,5.48,3.652,8.35,0,12.786s-3.914,7.046-6.393,8.09-2.867,4.7-5.674,0,.947-33.46.947-33.46Z" transform="translate(-387.135 -115.275)" fill="#ff9489"/>
      <path id="Path_88" data-name="Path 88" d="M553.978,342.157l.782-10.176-.1-1.62-7.757-3.136s-2.22,17.02-1.966,27.012c.873,1.076,1.826,1.392,2.426-.994,1.342-5.353,2.83-6.128,4.715-5.606C551.354,345.289,552.543,341.244,553.978,342.157Z" transform="translate(-387.134 -115.275)" fill="#ff9489" style="mix-blend-mode: multiply;isolation: isolate"/>
      <path id="Path_89" data-name="Path 89" d="M556.328,240.552s9,70.974,9.263,98.633,0,34.7,0,34.7-12,2.35-19.048,1.306c-3.914-1.044-4.958-24.267-4.958-24.267V248.9S548.631,236.638,556.328,240.552Z" transform="translate(-388.701 -156.399)" fill="#6770a7"/>
      <path id="Path_90" data-name="Path 90" d="M556.328,240.552c-7.7-3.914-14.743,8.35-14.743,8.35V350.927s.942,20.9,4.383,23.926c15.77-3.317,10.239-17.142,10.36-23.4.131-6.784-5.087-72.018-2.682-91.067C554.362,254.712,556.328,240.552,556.328,240.552Z" transform="translate(-388.701 -156.399)" fill="#6770a7" opacity="0.5" style="mix-blend-mode: multiply;isolation: isolate"/>
      <path id="Path_91" data-name="Path 91" d="M557.881,374.155c1.823-.284,2.994-.513,2.994-.513s.262-7.044,0-34.7-9.263-98.633-9.263-98.633S560.022,340.754,557.881,374.155Z" transform="translate(-383.985 -156.153)" fill="#b0aed4"/>
      <path id="Path_92" data-name="Path 92" d="M497.676,320.973a124.569,124.569,0,0,0-2.739,36.009c1.564,18.788,4.7,50.883,2.739,64.19s-7.437,75.539-5.871,87.282c2.739,9.394,13.308,14.481,19.179,16.438s7.046-12.524,6.653-34.052,7.046-53.622,3.132-64.581c3.132-21.135,8.219-56.753,10.96-59.1s10.176-.782,10.176-.782,7.437,50.882,8.611,54.8,2.739,10.958,2.739,10.958-1.957,59.885-4.7,67.713c16.438,9.785,20.544,9.394,24.363,9,3.426-9,3.426-16.439,1.861-27.79,0-19.961-2.548-44.228-1.861-54.405s.879-41.88,0-53.622-.1-44.228-2.053-54.013S497.676,320.973,497.676,320.973Z" transform="translate(-412.243 -120.966)" fill="#172f5b"/>
      <path id="Path_93" data-name="Path 93" d="M567.35,328.732l1.969-11.561c-10.667-6.249-71.643,3.8-71.643,3.8a124.569,124.569,0,0,0-2.739,36.009c1.564,18.788,4.7,50.883,2.739,64.19s-7.437,75.539-5.871,87.283c2.655,9.1,12.649,14.153,18.608,16.238-3.818-4.134-11.26-12.5-12.606-16.309-1.828-5.158,6.522-63.728,7.044-76.514s7.828-59.232,14.084-68.886,19.055-19.571,31.319-22.956S567.35,328.732,567.35,328.732Z" transform="translate(-412.243 -120.966)" fill="#172f5b" opacity="0.4" style="mix-blend-mode: multiply;isolation: isolate"/>
      <path id="Path_94" data-name="Path 94" d="M455.611,248.055s-2.877-12.395-3.4-14.352a130.912,130.912,0,0,1-9.655-18.265s6.393-13.7,8.09-15.4c3-2.088,15.656-10.7,11.873-4.567-3.392,4.828-3.654,5.789-3.654,5.789s7.959-3.179,8.35-2.788-6.393,6.916-6.393,6.916,6.034-.131,6.41,1.3-5.758,3.392-5.758,3.392l.05,5.053s2.429.688,1.125,1.992-5.741,1.826-5.741,1.826a11.874,11.874,0,0,1,2.741,10.567c.913,5.22,2.348,13.178,2.348,13.178Z" transform="translate(-435.274 -178.255)" fill="#ff9489"/>
      <path id="Path_95" data-name="Path 95" d="M454.168,226.783c-5.48-9.1-9.883-16.536-10.176-17.222-.162-.376.326-2.522.8-4.382-1.273,2.616-2.236,4.676-2.236,4.676a130.913,130.913,0,0,0,9.655,18.265c.522,1.957,3.4,14.352,3.4,14.352l5.859-4.908A22.725,22.725,0,0,1,454.168,226.783Z" transform="translate(-435.274 -172.672)" fill="#ff9489" style="mix-blend-mode: multiply;isolation: isolate"/>
      <path id="Path_96" data-name="Path 96" d="M454.046,207.61V195.649c-2.072,1.3-4.009,2.629-4.965,3.293a11.468,11.468,0,0,0-1.313,1.945c-.026.074-4.23,11.5,0,13.45S454.046,207.61,454.046,207.61Z" transform="translate(-433.709 -177.154)" fill="#ff9489" style="mix-blend-mode: multiply;isolation: isolate"/>
      <path id="Path_97" data-name="Path 97" d="M459.12,188.812a.992.992,0,0,0-1.241-.853l-11.2,2.976a.988.988,0,0,0-.726,1.1l3.851,26.78a.99.99,0,0,0,.981.851.947.947,0,0,0,.213-.024l10.327-2.276a.991.991,0,0,0,.773-1.075Z" transform="translate(-433.682 -180.786)" fill="#172f5b"/>
      <path id="Path_98" data-name="Path 98" d="M450.034,216.552s4.5-9.785,6.066-12.721-3.523-.587-9.589,6.361C445.336,214.4,445.727,218.509,450.034,216.552Z" transform="translate(-433.682 -173.888)" fill="#ff9489"/>
      <path id="Path_99" data-name="Path 99" d="M460.405,226.956l-14.466,10.893s18.576,57.928,21.121,63.406,47.751-33.464,47.751-33.464,1.957,49.708,2.348,63.015-3.914,37.966-3.914,37.966,42.076,6.066,52.84,7.241,32.095-7.828,32.095-7.828-3.327-51.665-3.523-58.906-2.936-39.923,1.369-48.73,4.7-11.351,5.284-13.894S571.955,232.3,571.955,232.3H542.992s-26.42,5.568-29.16,7.221-36.009,33.158-36.009,33.158S463.733,223.693,460.405,226.956Z" transform="translate(-433.683 -162.504)" fill="#6770a7"/>
      <path id="Path_100" data-name="Path 100" d="M544.034,310.887c-2.348-41.749-25.31-57.144-27.658-55.5S474.1,291.839,471.5,287.664a173.836,173.836,0,0,1-11.795-60.4L445.939,237.63s18.576,57.928,21.121,63.406,47.751-33.464,47.751-33.464,1.957,49.708,2.348,63.015-3.914,37.966-3.914,37.966,42.076,6.066,52.84,7.241c3.64.4,8.492-.372,13.316-1.561C569.535,368.3,546.065,346.98,544.034,310.887Z" transform="translate(-433.683 -162.284)" fill="#6770a7" opacity="0.3" style="mix-blend-mode: multiply;isolation: isolate"/>
      <path id="Path_101" data-name="Path 101" d="M562.671,244.9c.588-2.545-29.355-14.352-29.355-14.352H528.1s19.487,7.769,32.842,20.275A36.815,36.815,0,0,0,562.671,244.9Z" transform="translate(-395.044 -160.743)" fill="#b0aed4"/>
      <path id="Path_102" data-name="Path 102" d="M555.49,344.374s-3.327-51.665-3.523-58.906c-.044-1.606-.212-4.465-.4-8.034-.046,20.178-.057,43.862.106,52.392.3,15.94-.729,14.49-14.96,20.813h0A145.161,145.161,0,0,0,555.49,344.374Z" transform="translate(-390.993 -138.691)" fill="#b0aed4"/>
      <path id="Path_103" data-name="Path 103" d="M473.652,274.288l36.269-31.873,22.715-8.9c-7.931,1.739-21.509,4.825-23.432,5.986-2.739,1.651-36.009,33.158-36.009,33.158s-12.661-44.012-16.81-45.8l-.607.069s15.9,44.885,17.417,52.578A22.327,22.327,0,0,1,473.652,274.288Z" transform="translate(-429.055 -162.476)" fill="#b0aed4"/>
      <path id="Path_104" data-name="Path 104" d="M525.1,361.371c-17.3-8.414-21.665-25.129-23-37.976-1.75-16.831-5.3-70.845-5.3-70.845l-3.523,3.132s1.957,49.708,2.348,63.015-3.914,37.966-3.914,37.966S509.652,359.249,525.1,361.371Z" transform="translate(-412.154 -150.394)" fill="#6770a7" opacity="0.5" style="mix-blend-mode: multiply;isolation: isolate"/>
      <path id="Path_105" data-name="Path 105" d="M451.718,204.061c.431.954-.1,2.845-.645,4.562-.784,2.447-2.348,7.926-2.348,7.926s4.5-9.785,6.066-12.721C455.72,202.085,454.294,202.22,451.718,204.061Z" transform="translate(-432.373 -173.886)" fill="#ffd4d2"/>
      <path id="Path_106" data-name="Path 106" d="M510.506,401.953c-2.348,27.136-5.48,57.4-5.48,68.625,0,8.958,2.8,22.225.223,30.8,5.337.756,6.416-13.443,6.039-34.195-.391-21.527,7.046-53.622,3.132-64.581,1.592-10.745,3.689-25.226,5.727-37.182C516.356,381.067,511.7,399.723,510.506,401.953Z" transform="translate(-405.894 -97.311)" fill="#b0aed4" opacity="0.4"/>
      <path id="Path_107" data-name="Path 107" d="M550.852,475.365c0-19.961-2.548-44.228-1.861-54.405s.879-41.88,0-53.622c-.613-8.192-.419-26.479-.908-40.113,0,.04-1.928,28.508-2.71,36.852s-1.817,55.579-1.953,59.232-1.431,37.835,0,47.229c1.1,7.2,3.952,23.451-1.009,32.17a16.229,16.229,0,0,0,6.58.447C552.416,494.152,552.416,486.715,550.852,475.365Z" transform="translate(-388.312 -115.275)" fill="#b0aed4" opacity="0.4"/>
      <path id="Path_108" data-name="Path 108" d="M537.141,415.737s-1.957,59.885-4.7,67.713c8.884,5.287,14.149,7.591,17.73,8.541-3.961-2.894-5.639-12.3-6.119-18.065-.522-6.262-1.807-52.709-2.208-57.927s-7.707-31.835-8.49-40.185-7.568-25.832-7.568-25.832,7.437,50.883,8.611,54.8S537.141,415.737,537.141,415.737Z" transform="translate(-396.129 -104.572)" fill="#172f5b" opacity="0.4" style="mix-blend-mode: multiply;isolation: isolate"/>
      <path id="Path_109" data-name="Path 109" d="M553.989,337.116c.651,1.541,3,5.195.654,9.108s-2.42,6.3-4.2,9.461c1.356-1.367,2.161-3.692,4.98-7.113,3.652-4.436,3.392-7.306,0-12.786C555.424,335.787,553.336,335.576,553.989,337.116Z" transform="translate(-384.534 -111.253)" fill="#ffd4d2"/>
      <path id="Path_110" data-name="Path 110" d="M533.554,233.039s10.979-12.525,12.665-20.092-4.837-16.961-8.489-20.614-7.828-9.264-12.989-9.264c-2.016,0,0,5.406,0,5.406s-6.321-3.84-2.552,4.576c-7.1-1.175-5.334,2.774-3.507,5.073-.954,6.03-2.61,14.962-2.088,20.633,2.78-5.14,9.654-6.019,2.088,6.741a30.3,30.3,0,0,0,10.436,11.977Z" transform="translate(-400.501 -183.07)" fill="#202336"/>
      <path id="Path_111" data-name="Path 111" d="M511.717,218.413c-1.173-3,0-10.9,0-10.9s-2.87,8.294-1.826,11.424,9.654,9.394,9.654,9.394l.784-5.349S512.892,221.414,511.717,218.413Z" transform="translate(-403.714 -171.576)" fill="#ff9489" opacity="0.5" style="mix-blend-mode: multiply;isolation: isolate"/>
    </g>
    <g id="Group_296" data-name="Group 296" transform="translate(193.861 283.619)">
      <path id="Path_112" data-name="Path 112" d="M276.606,223.571a1.108,1.108,0,0,1,.578-.725,1.123,1.123,0,0,1,.928-.032l11.973,5.008a1.111,1.111,0,0,1,.64,1.332l-8.351,29.119a1.109,1.109,0,0,1-1.219.794,1.086,1.086,0,0,1-.234-.057l-11.108-4.1a1.112,1.112,0,0,1-.694-1.312Z" transform="translate(-86.553 -187.973)" fill="#172f5b"/>
      <path id="Path_113" data-name="Path 113" d="M267.563,460.554c-5.437-.715-18.977-2.6-14.881-3.16,3.6-.5,10.376-.893,14.031-1.084a17.487,17.487,0,0,0-.772-2.476c-1.817-.022-23.032.679-24.889.712-14.006.241-46.688,3.933-46.688,9.225s30.025,7.534,50.752,8.735c11.693.676,18.624.735,28.1-.073C269.38,469.123,268.339,464.689,267.563,460.554Z" transform="translate(-121.693 -79.285)" opacity="0.25" fill="url(#linear-gradient-2)" style="mix-blend-mode: multiply;isolation: isolate"/>
      <path id="Path_114" data-name="Path 114" d="M202.668,463.912c-5.439-.715-4.421-1.551-.325-2.113,3.6-.494,10.376-.892,14.031-1.084a17.4,17.4,0,0,0-.772-2.475c-1.817-.024-11.01-1.067-12.867-1.067-4.287,0-57.8.172-57.8,5.464S185.187,468.916,202.668,463.912Z" transform="translate(-144.938 -77.715)" opacity="0.25" fill="url(#linear-gradient-2)" style="mix-blend-mode: multiply;isolation: isolate"/>
      <path id="Path_115" data-name="Path 115" d="M193.029,452.49c-4.305,5.4-9.133,12.656-22.766,18.2-3.426,3.424,4.911,2.739,10.088,2.544s14.766-2.739,16.723-4.5,3.327-12.133,4.5-13.308c.979,8.415,1.175,12.721,1.175,12.721l1.957-.2s.978-11.548,1.761-15.265a13.751,13.751,0,0,0-1.566-10.177C203.14,439.77,200.317,443.355,193.029,452.49Z" transform="translate(-133.405 -85.034)" fill="#222221"/>
      <path id="Path_116" data-name="Path 116" d="M202.625,397.323s-4.117,32.617-5.067,40.445S193.6,462.3,191.3,470.385c-3.105,13.177-11.54,18.323-10.348,20.649,2.348,4.058,7.143-2.985,10.374-6.493a33.837,33.837,0,0,1,8.128-6.85c2.217-1.3,1.267-6.522,1.267-6.522s6.649-22.963,8.864-28.443,16.78-28.963,12.981-42.793c3.8-16.439,4.115-20.092,4.115-20.092S206.74,376.971,202.625,397.323Z" transform="translate(-128.053 -114.149)" fill="#ff9489"/>
      <path id="Path_117" data-name="Path 117" d="M224.076,388.927l-2.664-9.125c-6.212.644-16.035,3.865-18.787,17.474,0,0-4.117,32.617-5.067,40.445S193.6,462.25,191.3,470.338c-3.105,13.177-11.54,18.323-10.348,20.649,1.973,3.41,5.669-1.013,8.717-4.595.838-4.629,3.807-10.642,4.5-12.73,1.147-3.46,7.465-51.857,10.857-62.557S224.076,388.927,224.076,388.927Z" transform="translate(-128.053 -114.103)" fill="#ff9489" style="mix-blend-mode: multiply;isolation: isolate"/>
      <path id="Path_118" data-name="Path 118" d="M244.615,447.464s-10.89,12.292,4.883,29.69c1.7,1.413,2,1.666,4.63-4.37,4.024-9.22.159-27-2.792-29.937S244.615,447.464,244.615,447.464Z" transform="translate(-99.783 -84.771)" fill="#222221"/>
      <path id="Path_119" data-name="Path 119" d="M237.863,386.115s-3.23,10.785-1.447,15.86,9.9,65.9,9.782,73.515c-2.435,8.088-.419,21.266,5.134,21.8s6.979-13.493,3.948-22.907c-.7-20.9-.828-47.618.071-57.661s1.57-25.305-1.4-31.842-10.105-10.064-10.105-10.064S237.452,384.058,237.863,386.115Z" transform="translate(-102.169 -116.449)" fill="#ff9489"/>
      <path id="Path_120" data-name="Path 120" d="M236.416,401.975c1.783,5.074,9.9,65.9,9.78,73.515-2.433,8.088-.418,21.266,5.136,21.8a2.972,2.972,0,0,0,1.9-.454c-6.71-4.74-4.874-18.07-5.664-22.985-.988-6.141-6.581-60.917-6.841-69.527s12-20.875,12-20.875l-.063-.879a25.429,25.429,0,0,0-8.817-7.753s-6.4,9.245-5.986,11.3C237.863,386.115,234.632,396.9,236.416,401.975Z" transform="translate(-102.169 -116.449)" fill="#ff9489" style="mix-blend-mode: multiply;isolation: isolate"/>
      <path id="Path_121" data-name="Path 121" d="M221.136,318.992c-14.05.119-22.632-15.764-25.9-27.422-3.652-13.046.4-25.854,8.35-36.579s3.5-19.309,6.133-33.934,10.848-21.3,21.363-21.937,23.234,9.22,25.141,25.435,5.736,23.022,12.728,32.264C278.1,268.907,291.852,318.4,221.136,318.992Z" transform="translate(-121.918 -199.09)" fill="#202336"/>
      <path id="Path_122" data-name="Path 122" d="M211.983,311.915s-15.61,72.762-17.176,122.339c36.009-5.74,79.064-14.09,79.064-14.09s2.333-34.7,2.148-60.536c-.059-8.156-1.1-52.97-7.5-58.45C252.735,304.569,211.983,311.915,211.983,311.915Z" transform="translate(-121.485 -151.079)" fill="#172f5b"/>
      <path id="Path_123" data-name="Path 123" d="M237.607,423.223c9.81-1.833,16.135-3.06,16.135-3.06s2.333-34.7,2.148-60.536c-.059-8.156-1.1-52.97-7.5-58.45-.632.135-1.317.281-2.025.428,2.01,11.532,7.322,48.414,3.46,98.205C248.334,410.082,242.7,418.857,237.607,423.223Z" transform="translate(-101.356 -151.079)" fill="#b0aed4" opacity="0.4"/>
      <path id="Path_124" data-name="Path 124" d="M224.292,381.136c6.785-25.764,22.7-71.043,37.575-77.045l-4.736-1.342c-18.545,3.632-45.148,8.426-45.148,8.426s-15.61,72.762-17.176,122.339c16.511-2.632,34.492-5.811,49.136-8.484C234.845,416.8,219.424,399.624,224.292,381.136Z" transform="translate(-121.485 -150.34)" fill="#172f5b" opacity="0.4" style="mix-blend-mode: multiply;isolation: isolate"/>
      <path id="Path_125" data-name="Path 125" d="M255.119,276.046s8.807,14.09,11.351,19.765c5.987-8.963,15.851-31.116,18.005-34.248-.2-5.283,0-10.176,0-10.176s-3.915-8.023-3.718-9.785,6.262,6.849,6.262,6.849-2.936-11.351-1.566-13.112,6.066,11.743,6.066,11.743-1.369-16.635,0-17.419,4.305,16.244,4.7,22.9-7.241,12.72-7.437,13.894c-4.109,15.069-15.265,42.858-20.94,50.882-2.545,3.523-22.9-32.291-22.9-32.291S247.1,279.178,255.119,276.046Z" transform="translate(-97.906 -184.724)" fill="#ff9489"/>
      <path id="Path_126" data-name="Path 126" d="M252.63,261.989c-5.983,3.229-7.687,7.846-7.687,7.846s16.711,29.406,21.741,32.3C260.075,292.576,253.965,270.706,252.63,261.989Z" transform="translate(-97.906 -169.509)" fill="#ff9489" style="mix-blend-mode: multiply;isolation: isolate"/>
      <path id="Path_127" data-name="Path 127" d="M204.1,276.684s-1.826-9.133-10.7-13.308c-10.96,15.4-20.615,35.192-21.137,38.341s44.62,25.849,44.62,25.849-2.741,9-2.741,11.873,1.436,17.873,2.741,19.179,3-13.569,3-13.569,1.957,5.871,3.783,6.133-2.247-15.9-2.247-15.9,2.247-7.2,2.247-11.631-32.617-25.833-34.183-26.877C195.232,288.687,204.1,276.684,204.1,276.684Z" transform="translate(-132.086 -168.857)" fill="#ff9489"/>
      <path id="Path_128" data-name="Path 128" d="M219.825,326.327s-22.7-12.917-43.641-26.42c8.385-20.364,20.361-30.4,24.938-29.854a19.029,19.029,0,0,0-7.715-6.677c-10.96,15.4-20.615,35.192-21.137,38.339s44.62,25.851,44.62,25.851-2.741,9-2.741,11.873,1.436,17.873,2.741,19.179,3-13.569,3-13.569-2.805-5.414-3-7.959S219.825,326.327,219.825,326.327Z" transform="translate(-132.086 -168.857)" fill="#ff9489" style="mix-blend-mode: multiply;isolation: isolate"/>
      <path id="Path_129" data-name="Path 129" d="M220.695,245.749s-17.613,6-19.439,7.046-14.612,20.614-14.612,20.614,6,3.914,10.7,13.308c6.262-7.828,9.394-12,9.394-12s10.176,27.137,13.959,35.227c-2.739,16.439-3.1,21.746-4.592,29.837,17.529,3.354,47.777-5.048,56.258-10.789-3.785-13.83-7.7-24.005-7.437-27.919s2.348-29.485,2.348-29.485l5.089,7.632s4.305-7.241,10.176-9c-3.261-12.981-10.829-24.463-11.873-27.073s-22.375.262-22.375.262Z" transform="translate(-125.324 -178.889)" fill="#6770a7"/>
      <path id="Path_130" data-name="Path 130" d="M260.933,274.6a16.06,16.06,0,0,1,6.574-4.389c-3.261-12.981-10.829-24.463-11.873-27.073s-22.375.262-22.375.262L218.6,244.648l1.935,23.216s12.134-9,16.439-22.31c10.176-1.175,15.265,0,15.265,0s10.924,15.823,8.691,29.047Z" transform="translate(-110.294 -178.889)" fill="#b0aed4"/>
      <path id="Path_131" data-name="Path 131" d="M219.589,232.452s1.761,10.763-1.566,13.894c-5.675,2.936-8.22,3.914-8.22,3.914a86.274,86.274,0,0,0,14.874,22.115C234.461,262,237.4,247.912,237.4,247.912s-5.284.2-7.437-.784-.782-14.676-.782-14.676Z" transform="translate(-114.432 -183.401)" fill="#ff9489"/>
      <path id="Path_132" data-name="Path 132" d="M223.737,247.129a13.07,13.07,0,0,1,5.158-10.92c.125-2.145.284-3.757.284-3.757h-9.589s1.761,10.763-1.566,13.894c-5.675,2.936-8.22,3.914-8.22,3.914a86.274,86.274,0,0,0,14.874,22.115c.5-.531.97-1.075,1.435-1.622C212.1,252.514,217.632,252.413,223.737,247.129Z" transform="translate(-114.432 -183.401)" fill="#ff9489" style="mix-blend-mode: multiply;isolation: isolate"/>
      <path id="Path_133" data-name="Path 133" d="M210.66,216.69s1.044,8.872,1.306,10.7c-2.871-2.61-4.7-.26-3.132,2.61a52.693,52.693,0,0,0,5.218,7.046s5.742,12,12.264,12,12.525-8.35,14.352-30.267a35.936,35.936,0,0,1-8.088-7.046s-6.263,7.568-12,2.87S210.048,211.545,210.66,216.69Z" transform="translate(-115.159 -193.145)" fill="#ff9489"/>
      <path id="Path_134" data-name="Path 134" d="M278.371,257.543c1.37-2.545-.782-13.112-.782-13.112s-.2,4.893,0,10.176c-2.154,3.132-12.018,25.285-18.005,34.248l1.761,3.327S277,260.087,278.371,257.543Z" transform="translate(-91.021 -177.767)" fill="#ff9489" style="mix-blend-mode: multiply;isolation: isolate"/>
      <path id="Path_135" data-name="Path 135" d="M181.319,292.714s30.265,18.573,38.031,28.069c.04-.482.066-.951.066-1.388,0-4.436-32.617-25.833-34.183-26.877,5.741-8.088,14.613-20.092,14.613-20.092Z" transform="translate(-127.828 -164.601)" fill="#ffd4d2"/>
      <path id="Path_136" data-name="Path 136" d="M288.893,252.455c-.351-5.964-2.745-20.247-4.224-22.588,1.191,6.343,3.445,19.517,2.267,22.588-1.566,4.083-.979,5.675-6.459,12.524-2.348,11.155-19.961,52.253-19.961,52.253,5.675-8.025,16.83-35.813,20.94-50.882C281.652,265.175,289.284,259.108,288.893,252.455Z" transform="translate(-90.582 -184.616)" fill="#ffd4d2"/>
      <path id="Path_137" data-name="Path 137" d="M228.484,240.744c-2.539,4.884-6.51,6.84-10.964,5.13a7.616,7.616,0,0,0,4.44,1.719c6.524,0,12.525-8.35,14.352-30.267a30.37,30.37,0,0,1-3.477-2.505C232.858,227.689,230.544,236.783,228.484,240.744Z" transform="translate(-110.803 -191.693)" fill="#ffd4d2"/>
      <path id="Path_138" data-name="Path 138" d="M227.764,307.72c-2.936-5.087-15.657-43.641-15.591-46.38s7.763-10.764,12.068-12.328l3.636-2.545-5.006-1.37s-16.439,5.089-20.744,9c-2.72,2.474-9.113,12.994-13.452,20.406a40.186,40.186,0,0,1,7.712,10.776c6.262-7.828,9.394-12,9.394-12s10.176,27.137,13.959,35.227c-2.739,16.439-3.1,21.746-4.592,29.837,9.178,1.756,21.838.287,33.039-2.333C229.336,332.878,230.309,312.134,227.764,307.72Z" transform="translate(-124.369 -177.454)" fill="#6770a7" opacity="0.3" style="mix-blend-mode: multiply;isolation: isolate"/>
      <path id="Path_139" data-name="Path 139" d="M246.231,262.134l-6.066,30.725s5.087,18.787,6.066,21.918-2.708,6.622-14.846,12.406c8.807-2.294,16.334-5.206,19.934-7.644-3.785-13.83-7.7-24.005-7.437-27.919S246.231,262.134,246.231,262.134Z" transform="translate(-104.282 -169.441)" fill="#b0aed4"/>
    </g>
    <g id="Group_300" data-name="Group 300" transform="translate(127.166 463.759)">
      <g id="Group_297" data-name="Group 297" transform="translate(0 42.154)">
        <path id="Path_140" data-name="Path 140" d="M137.766,355.491c-6.03,1.251-10.867-7.976-24.379-4.368s-21.544,30.454-2.722,39.139,20.372,22.954,18.38,33.154-12.7,40.8,45.692,31.4c9.006-2.58,28.04-29.647,11.492-46.179s-30.588-12.953-27-27.881S154.189,352.083,137.766,355.491Z" transform="translate(-99.576 -350.28)" fill="#b0aed4"/>
        <path id="Path_141" data-name="Path 141" d="M137.766,355.491c-6.03,1.251-10.867-7.976-24.379-4.368s-21.544,30.454-2.722,39.139,20.372,22.954,18.38,33.154-12.7,40.8,45.692,31.4c9.006-2.58,28.04-29.647,11.492-46.179s-30.588-12.953-27-27.881S154.189,352.083,137.766,355.491Z" transform="translate(-99.576 -350.28)" fill="#b0aed4" opacity="0.4" style="mix-blend-mode: multiply;isolation: isolate"/>
        <path id="Path_142" data-name="Path 142" d="M182.16,466.239c-.174-.338-8.763-17.028-21.587-38.814l13.709-22.515a.555.555,0,0,0-.948-.578l-13.4,22.007c-6.228-10.546-13.416-22.225-21.106-33.793l5.262-31.213a.556.556,0,0,0-.454-.639.565.565,0,0,0-.64.456L137.929,391.2a402.723,402.723,0,0,0-26.4-35.619.783.783,0,0,0-1.2,1.012c5.615,6.637,11.242,13.988,16.732,21.65l-21.238-4.433a.555.555,0,1,0-.226,1.087l22.418,4.678c15.129,21.275,29.15,44.76,38.928,62.023H132.593a.555.555,0,1,0,0,1.11h34.986c8.043,14.244,13.056,23.986,13.189,24.242a.782.782,0,1,0,1.392-.712Z" transform="translate(-96.949 -347.916)" fill="#6770a7"/>
      </g>
      <g id="Group_298" data-name="Group 298" transform="translate(84.515 27.49)">
        <path id="Path_143" data-name="Path 143" d="M175.033,441.228c14.191,3.87,28.827-13.543,20.412-28.238s8.038-12.875,5.877-23.359-8.71-15.676-2.846-20.459,3.933-27.619-10.663-28.816-3.736,20.1-2.8,24.814-1.126,13.894-10.386,15.9-11.455,12.487-3.427,19.837-12.93,7.487-13.938,17.432S158.509,436.722,175.033,441.228Z" transform="translate(-157.057 -340.307)" fill="#b0aed4"/>
        <path id="Path_144" data-name="Path 144" d="M195.458,387.295a.326.326,0,0,0-.445.151c-1.882,3.817-8.722,7.4-11.177,8.588q.218-.851.435-1.7c2.752-10.742,5.393-21.124,5.347-31.086,2.617-3.636,3.167-7.9,3.561-11.039.1-.791.193-1.523.307-2.173a.331.331,0,0,0-.271-.385.325.325,0,0,0-.385.269c-.116.66-.21,1.4-.312,2.207-.375,2.988-.85,6.631-2.9,9.923a41.37,41.37,0,0,0-4.38-18,.555.555,0,1,0-.989.5c7.737,15.2,3.467,31.866-1.053,49.5-.569,2.217-1.141,4.458-1.7,6.716-1.588-2.941-6.065-11.368-7.007-14.685a.327.327,0,0,0-.412-.228.333.333,0,0,0-.229.412c1.063,3.733,6.288,13.4,7.415,15.466-1.266,5.206-2.413,10.514-3.17,15.906l-6.184-9.658a.332.332,0,1,0-.56.357l6.6,10.308c-.006.046-.013.093-.019.14C174.46,445.6,163.118,471.547,163,471.807a.555.555,0,0,0,.284.731.545.545,0,0,0,.223.047.557.557,0,0,0,.509-.331,232.4,232.4,0,0,0,13.7-45.035c2.013-.581,10.66-3.274,15.673-8.115a.336.336,0,0,0,.009-.472.339.339,0,0,0-.47-.009c-4.684,4.523-12.643,7.137-15.073,7.86.451-2.5.85-5.018,1.176-7.548a186.909,186.909,0,0,1,4.59-22.059c1.88-.872,9.829-4.756,11.989-9.136A.333.333,0,0,0,195.458,387.295Z" transform="translate(-154.283 -338.688)" fill="#6770a7"/>
      </g>
      <g id="Group_299" data-name="Group 299" transform="translate(31.261)">
        <path id="Path_145" data-name="Path 145" d="M176.981,468.384A38.427,38.427,0,0,0,193.311,437.9c.507-20.619-19.137-16.572-16.039-31.6s14.1-32.729,1.194-42.142-29.92.992-21.278-17.258c7.76-16.385-17.817-28.24-27.021-24.654-9.17,3.573-13.224,16.473.56,28.24,6.2,5.3,3.105,11.77-3.064,18.88-6.652,7.666-11.831,18.685,1.384,25.391,14.119,7.166-9.189,13.555-3.811,26.553s27.331,6.83,22.973,16.922C143.369,449.445,116.605,461.084,176.981,468.384Z" transform="translate(-120.837 -321.61)" fill="#b0aed4"/>
        <path id="Path_146" data-name="Path 146" d="M170.415,405.813c3.1-15.023,14.1-32.729,1.194-42.142s-29.922.992-21.278-17.258c5.3-11.192-4.951-20.265-14.916-23.753a22.941,22.941,0,0,1,8.784,10.424c2.086,5.48-11.789,25.929,8.659,28.963s25.523,6.524,19.521,24.267-14.352,25.571,0,33.661,13.178,26.943-2.152,40.608c-.063,4.626-.215,5.789-.1,7.3a38.415,38.415,0,0,0,16.326-30.479C186.962,416.788,167.317,420.836,170.415,405.813Z" transform="translate(-113.982 -321.116)" fill="#dfdffb" opacity="0.5"/>
        <path id="Path_147" data-name="Path 147" d="M179.853,427.318a.556.556,0,0,0-.781.063l-10.045,11.846c-3.152-13.828-7.329-30.135-12.658-47.154,1.781-2.308,11.168-14.621,15.057-22.751a.555.555,0,0,0-1-.479c-3.574,7.475-11.9,18.582-14.462,21.937-6.632-21-15.016-43-25.388-62.687a.783.783,0,0,0-1.385.731,360.434,360.434,0,0,1,21.28,50.284c-4.286-1.417-17.291-5.664-22.24-6.655a.555.555,0,0,0-.218,1.088c5.183,1.038,19.845,5.866,22.906,6.884,4.432,13,8.19,25.841,11.33,37.753-5.07-.981-25.333-4.9-32.264-6.194a.561.561,0,0,0-.647.444.555.555,0,0,0,.444.647c7.2,1.342,28.81,5.525,32.78,6.294,3.045,11.648,5.5,22.372,7.4,31.45l-25.558-1.855a.548.548,0,0,0-.594.515.556.556,0,0,0,.513.593l25.874,1.878c3.463,16.629,5.052,27.45,5.095,27.755a.784.784,0,0,0,.775.67.962.962,0,0,0,.112-.007.785.785,0,0,0,.665-.887c-.053-.368-2.36-16.091-7.51-38.9l10.583-12.48A.555.555,0,0,0,179.853,427.318Z" transform="translate(-117.672 -318.757)" fill="#6770a7"/>
      </g>
    </g>
    <path id="Path_148" data-name="Path 148" d="M111.219,355.838" transform="translate(33.065 158.246)" fill="none" stroke="#6770a7" stroke-linecap="round" stroke-linejoin="round" stroke-width="1"/>
    <path id="Path_149" data-name="Path 149" d="M159.187,431" transform="translate(55.625 193.594)" fill="none" stroke="#6770a7" stroke-linecap="round" stroke-linejoin="round" stroke-width="1"/>
  </g>
</svg>
